# File created by Blade
# Date/Time:  Tue Jan 27 19:14:06 2015
# Frame Rate: 120.000 fps
#------------------------------------------------------
:FULLY-SPECIFIED
:DEGREES
4366
root 3.373849 32.401694 0.612100 -2.701908 -1.545348 0.176572
Spine 1.713526 3.108301 -2.161980
Head 9.888688 -10.590360 1.679860
LeftShoulder -14.784905 -0.064250 29.583846
LeftArm -0.578314 -6.435903 -81.452330
LeftForeArm 10.730122 -0.000000 32.946557
LeftHand 9.345270 -0.000000 10.686742
LeftHandThumb1 -26.253704 0.000000 33.147579
RightShoulder -19.639238 -5.674365 -48.629810
RightArm 15.896414 68.880916 39.054941
RightForeArm 9.619672 -0.000000 95.381285
RightHand 26.291340 -0.000000 -21.752121
RightHandThumb1 -24.326973 -0.000000 -32.862282
LeftUpLeg 9.622448 0.878005 0.758195
LeftLeg 1.341678 -0.000000 -0.000000
LeftFoot -16.418856 11.129846 -23.062316
LeftToeBase 17.989006 -0.000000 -0.000000
RightUpLeg 7.242783 0.658690 4.750726
RightLeg 1.312574 -0.000000 -0.000000
RightFoot -11.319801 -12.297625 13.015420
RightToeBase 12.707810 -0.000000 -0.000000
4367
root 3.366915 32.400810 0.605926 -2.682305 -1.502846 0.201169
Spine 1.756718 3.125512 -2.194560
Head 9.658189 -10.500591 1.730712
LeftShoulder -14.953577 0.000021 29.750278
LeftArm -0.329509 -7.864135 -80.297204
LeftForeArm 10.840194 -0.000000 33.262236
LeftHand 9.132234 -0.000000 10.218561
LeftHandThumb1 -26.253704 0.000000 33.147579
RightShoulder -19.698040 -5.638563 -48.511507
RightArm 13.712315 67.479842 37.355929
RightForeArm 9.366538 -0.000000 94.061723
RightHand 25.928698 -0.000000 -20.697169
RightHandThumb1 -24.326973 -0.000000 -32.862282
LeftUpLeg 9.574830 0.832334 0.743904
LeftLeg 1.361938 -0.000000 -0.000000
LeftFoot -16.477077 11.080369 -23.304948
LeftToeBase 18.134477 -0.000000 -0.000000
RightUpLeg 7.230172 0.724800 4.752935
RightLeg 1.285876 -0.000000 -0.000000
RightFoot -11.350723 -12.402652 13.034185
RightToeBase 12.709878 -0.000000 -0.000000
4368
root 3.355499 32.399930 0.599336 -2.661730 -1.445307 0.202851
Spine 1.801627 3.142402 -2.222744
Head 9.435877 -10.408351 1.811507
LeftShoulder -15.083177 0.034128 29.961803
LeftArm -0.089700 -9.220833 -79.173264
LeftForeArm 11.254106 -0.000000 33.512877
LeftHand 8.820387 0.000000 9.925429
LeftHandThumb1 -26.253704 0.000000 33.147579
RightShoulder -19.748423 -5.976621 -48.255887
RightArm 12.191118 66.319893 36.277746
RightForeArm 9.066446 0.000000 92.718074
RightHand 25.401420 -0.000000 -20.060514
RightHandThumb1 -24.326973 -0.000000 -32.862282
LeftUpLeg 9.533776 0.777595 0.755923
LeftLeg 1.356310 -0.000000 -0.000000
LeftFoot -16.408519 11.156960 -23.070484
LeftToeBase 17.991219 -0.000000 -0.000000
RightUpLeg 7.217550 0.760818 4.781396
RightLeg 1.258505 -0.000000 -0.000000
RightFoot -11.357787 -12.491739 13.012433
RightToeBase 12.767041 -0.000000 -0.000000
4369
root 3.346780 32.399370 0.594570 -2.654772 -1.387351 0.216711
Spine 1.861763 3.170178 -2.253380
Head 9.192147 -10.337024 1.877937
LeftShoulder -15.214362 0.067670 30.169364
LeftArm 0.182691 -10.544256 -78.052491
LeftForeArm 11.701227 0.000000 33.720687
LeftHand 8.381042 -0.000000 9.505460
LeftHandThumb1 -26.253704 0.000000 33.147579
RightShoulder -19.840563 -6.281663 -48.031254
RightArm 10.891793 65.075177 35.438370
RightForeArm 8.569013 -0.000000 91.332258
RightHand 24.941732 -0.000000 -19.186832
RightHandThumb1 -24.326973 -0.000000 -32.862282
LeftUpLeg 9.489459 0.833902 0.778917
LeftLeg 1.389008 -0.000000 -0.000000
LeftFoot -16.439447 11.016980 -23.206878
LeftToeBase 18.277637 -0.000000 -0.000000
RightUpLeg 7.217023 0.725144 4.781748
RightLeg 1.236359 -0.000000 -0.000000
RightFoot -11.361846 -12.502879 13.032019
RightToeBase 12.700400 -0.000000 -0.000000
